# xmcd
# 
# Track frame offsets:
#     150
#     18932
#     32062
#     52565
#     76417
#     98587
#     122420
#     144775
#     168985
#     190095
#     203280
#     221255
#     252710
# 
# Disc length: 3721
# 
# Revision: 3
# Processed by: cddbd v1.5.2PL0 Copyright (c) Steve Scherf et al.
# Submitted via: BonkEnc v1.0
# 
DISCID=940e870d
DTITLE=TM Network - Carol -A Day In The Girl's Life 1991
DYEAR=1991
DGENRE=JPop
TTITLE0=A Day In The Girl's Life 1991
TTITLE1=Carol(Carol's Theme I)
TTITLE2=Chase In Labyrinth
TTITLE3=Gia Corm Fillippo Dia(Devil's Carnival)
TTITLE4=Come On Everybody
TTITLE5=Beyond The Time
TTITLE6=Seven Days War
TTITLE7=You're The Best
TTITLE8=Winter Comes Around
TTITLE9=In The Forest
TTITLE10=Carol(Carol's Theme II)
TTITLE11=Just One Victory
TTITLE12=Still Love Her
EXTD=YEAR: 1991
EXTT0=
EXTT1=
EXTT2=
EXTT3=
EXTT4=
EXTT5=
EXTT6=
EXTT7=
EXTT8=
EXTT9=
EXTT10=
EXTT11=
EXTT12=
PLAYORDER=
